HIERARCHY
ROOT Hips
{
  OFFSET 269.752 109.085 -241.237
  CHANNELS 6 Xposition Yposition Zposition Zrotation Xrotation Yrotation
  JOINT ToSpine
  {
    OFFSET -2.69724 7.43032 -0.144315
    CHANNELS 3 Zrotation Xrotation Yrotation
    JOINT Spine
    {
      OFFSET -0.0310711 10.7595 1.96963
      CHANNELS 3 Zrotation Xrotation Yrotation
      JOINT Spine1
      {
        OFFSET 19.9056 3.91189 0.764692
        CHANNELS 3 Zrotation Xrotation Yrotation
        JOINT Neck
        {
          OFFSET 25.9749 7.03908 -0.130764
          CHANNELS 3 Zrotation Xrotation Yrotation
          JOINT Head
          {
            OFFSET 9.52751 0.295786 -0.907742
            CHANNELS 3 Zrotation Xrotation Yrotation
            End Site
            {
              OFFSET 16.4037 0.713936 2.7358
            }
          }
        }
        JOINT LeftShoulder
        {
          OFFSET 17.7449 4.33886 11.7777
          CHANNELS 3 Zrotation Xrotation Yrotation
          JOINT LeftArm
          {
            OFFSET 0.911315 1.27913 9.80584
            CHANNELS 3 Zrotation Xrotation Yrotation
            JOINT LeftForeArm
            {
              OFFSET 28.6126 1.18197 -3.53199
              CHANNELS 3 Zrotation Xrotation Yrotation
              JOINT LeftHand
              {
                OFFSET 27.5088 0.0218783 0.327423
                CHANNELS 3 Zrotation Xrotation Yrotation
                End Site
                {
                  OFFSET 18.6038 -0.000155887 0.382096
                }
              }
            }
          }
        }
        JOINT RightShoulder
        {
          OFFSET 17.1009 2.89543 -12.2328
          CHANNELS 3 Zrotation Xrotation Yrotation
          JOINT RightArm
          {
            OFFSET 1.4228 0.178766 -10.211
            CHANNELS 3 Zrotation Xrotation Yrotation
            JOINT RightForeArm
            {
              OFFSET 28.733 1.87905 2.64907
              CHANNELS 3 Zrotation Xrotation Yrotation
              JOINT RightHand
              {
                OFFSET 27.4588 0.290562 -0.101845
                CHANNELS 3 Zrotation Xrotation Yrotation
                End Site
                {
                  OFFSET 17.8396 -0.255518 -0.000602873
                }
              }
            }
          }
        }
      }
    }
  }
  JOINT LeftUpLeg
  {
    OFFSET -5.61296 -2.22332 -10.2353
    CHANNELS 3 Zrotation Xrotation Yrotation
    JOINT LeftLeg
    {
      OFFSET 2.56703 -44.7417 -7.93097
      CHANNELS 3 Zrotation Xrotation Yrotation
      JOINT LeftFoot
      {
        OFFSET 3.16933 -46.5642 -3.96578
        CHANNELS 3 Zrotation Xrotation Yrotation
        JOINT LeftToeBase
        {
          OFFSET 0.346054 -6.02161 12.8035
          CHANNELS 3 Zrotation Xrotation Yrotation
          End Site
          {
            OFFSET 0.134235 -1.35082 5.13018
          }
        }
      }
    }
  }
  JOINT RightUpLeg
  {
    OFFSET -5.7928 -1.72406 10.6446
    CHANNELS 3 Zrotation Xrotation Yrotation
    JOINT RightLeg
    {
      OFFSET -2.57161 -44.7178 -7.85259
      CHANNELS 3 Zrotation Xrotation Yrotation
      JOINT RightFoot
      {
        OFFSET -3.10148 -46.5936 -4.03391
        CHANNELS 3 Zrotation Xrotation Yrotation
        JOINT RightToeBase
        {
          OFFSET -0.0828122 -6.13587 12.8035
          CHANNELS 3 Zrotation Xrotation Yrotation
          End Site
          {
            OFFSET -0.131328 -1.35082 5.13018
          }
        }
      }
    }
  }
}
MOTION
Frames:	13
Frame Time:	0.0333333
41.7793 104.704 -42.6381 62.1323 55.4215 29.1001 -70.1915 0 88.8779 96.367 67.2897 -11.8097 1.73024 13.4983 12.671 -146.439 17.5458 160.586 -138.989 52.814 160.158 1.64784 -6.90757 -32.7924 -88.1012 51.8499 -107.973 -2.14002 40.6674 -9.10506 2.192 -0.03796 -0.434049 0.823907 -2.5564 46.9491 -80.7213 -32.8828 86.6736 -2.31036 -7.90388 15.1644 14.3288 -0.34814 -3.26111 -66.8659 -1.49646 76.4268 0.860151 30.649 1.76983 5.92783 2.94145 -0.766469 -17.6206 -42.8264 2.64719 -46.4734 5.97136 81.7691 2.70496 16.7329 -8.33648 -5.61405 -5.27099 0.969615 -1.51749 -4.26038 7.38926 
39.2359 104.756 -40.1987 63.4862 55.1089 25.8503 -70.1915 0 88.8779 100.793 67.6207 -20.0592 0.511007 13.8899 13.3359 -147.026 17.2149 159.775 -137.442 51.9504 159.39 1.62107 -6.93807 -32.0689 -80.0917 50.1268 -113.791 0.13742 35.1395 -12.4138 3.43606 -0.114041 -2.03444 0.785857 -2.4231 47.2707 -78.0014 -33.3188 89.227 -1.93277 -4.90153 16.4776 13.0081 -0.434523 -4.36871 -66.2335 -1.72545 88.4499 4.22207 27.5151 -8.12148 6.5803 4.11689 -0.843911 -18.3802 -42.4232 0.00954453 -46.4934 4.07063 82.3036 2.53789 14.3879 -7.05937 -6.73727 -4.74226 1.04836 -1.88457 -9.1394 3.67857 
36.5703 104.701 -37.7822 65.1694 54.9761 22.9306 -70.1915 0 88.8779 106.527 66.9693 -28.6175 -0.999044 13.9228 13.6262 -147.602 17.2506 159.776 -136.903 51.7284 159.103 1.63964 -6.79744 -31.7369 -70.6006 46.8238 -119.731 2.01278 27.0752 -15.2721 3.64412 -0.10067 -1.45264 0.704258 -2.16713 47.4415 -74.6978 -33.5045 92.1824 -1.83434 -2.43112 17.4124 11.8184 -0.533008 -5.80079 -64.9226 -2.35143 94.0826 4.85313 27.2347 -11.3883 8.09002 3.9455 -1.07906 -18.0936 -40.398 -2.02416 -46.0327 2.64844 82.6196 2.38534 13.7839 -6.07174 -7.18642 -5.22384 1.08893 -2.37947 -12.6031 2.26065 
33.9365 104.671 -35.4805 66.4688 54.5371 19.7123 -70.1915 0 88.8779 109.734 66.9131 -34.5222 -1.95202 14.6432 13.477 -148.122 17.6935 160.267 -136.957 52.2094 159.431 1.57448 -7.12107 -31.7042 -71.1926 45.8962 -119.245 1.69806 27.5149 -15.0066 4.60463 -0.127784 -1.46315 0.786701 -2.41307 47.5236 -71.5269 -33.9418 94.5599 -1.27425 -0.470925 18.6783 12.2835 -0.537756 -5.62903 -63.944 -4.04297 96.45 3.85972 26.4824 -11.2943 8.6673 3.58689 -1.16694 -16.2323 -37.1518 -1.19965 -44.3449 0.0721237 81.8434 3.18874 15.7485 -5.49965 -6.72087 -4.27068 1.04092 -2.82115 -15.2351 0.554736 
31.66 104.764 -33.5141 67.6414 54.2014 17.5305 -70.1915 0 88.8779 111.022 66.7046 -37.0726 -2.18335 15.0672 12.6423 -147.355 17.7654 161.494 -138.545 53.0944 161.857 1.63768 -6.88954 -32.307 -75.7612 45.0668 -115.516 0.23291 29.6967 -13.5079 3.83057 -0.115469 -1.71743 0.616657 -1.86829 48.4263 -70.977 -33.8335 94.962 -1.11956 -1.92207 18.349 12.7611 -0.612989 -6.12666 -63.1601 -5.20728 96.7871 2.8107 25.8854 -9.85639 8.57454 3.25812 -1.15223 -14.3932 -33.5216 -0.771484 -42.4035 -2.12939 78.4056 3.53374 21.6856 -2.26262 -6.39488 -3.22479 0.996758 -2.91182 -15.6793 -1.63926 
29.5597 104.902 -31.9335 68.5063 53.7993 16.5308 -70.1915 0 88.8779 111.092 66.7785 -36.438 -1.53265 15.5939 11.1029 -146.73 18.0973 163.612 -139.788 53.9054 163.733 1.72352 -6.60698 -33.2102 -86.954 45.4708 -107.447 -2.09187 38.1836 -9.86872 3.74367 -0.117477 -1.84723 0.475633 -1.45877 48.1319 -71.9527 -34.584 94.9428 -1.51139 -5.61554 16.8461 13.8782 -0.624316 -5.73482 -62.4139 -5.5876 96.9686 2.04904 25.2682 -8.69669 9.00066 3.23314 -1.21523 -13.1644 -30.9848 -0.527077 -40.7037 -4.16468 71.2255 1.69266 31.1387 6.31977 -6.63708 -2.73485 1.01282 -3.3361 -17.6028 -2.83098 
27.6312 104.989 -30.5371 69.1674 53.0284 16.2309 -70.1915 0 88.8779 111.339 67.2557 -34.9527 -1.2306 16.3923 9.65064 -146.338 18.7546 165.704 -141.836 55.03 165.024 1.79656 -6.39616 -34.0613 -93.919 45.4124 -102.024 -5.53337 40.4162 -5.21446 4.83845 -0.0383107 0.662925 0.438458 -1.37665 46.6178 -71.2216 -36.0644 95.7705 -1.84911 -7.11807 16.1466 14.1627 -0.618961 -5.57596 -60.978 -5.67845 96.8942 2.13534 25.8076 -7.52498 8.71699 2.60204 -1.17113 -11.7877 -27.9897 -0.41255 -39.8102 -3.8502 72.5603 2.17755 40.8646 6.79354 -6.71475 -3.07743 1.02489 -3.30558 -17.3488 -4.10044 
25.8978 105.226 -29.1183 69.2886 52.5982 16.6821 -70.1915 0 88.8779 110.574 67.7634 -32.5253 -1.01712 16.8028 8.79234 -145.071 19.1877 167.208 -142.778 55.7984 166.389 1.81126 -6.31578 -33.9748 -98.6664 45.8975 -96.8376 -6.89567 42.0839 -1.91629 4.51459 -0.0179222 1.07397 0.354464 -1.12453 45.8663 -71.3468 -36.8998 95.3233 -1.64957 -8.81983 15.8872 14.0826 -0.449716 -4.17491 -59.7688 -5.60391 96.5204 2.36542 25.4764 -6.93768 8.65519 3.28349 -1.16425 -11.1613 -26.6052 -0.359833 -39.7935 -2.87554 74.1581 3.01064 49.9385 5.73334 -6.38984 -2.67178 0.987555 -3.5321 -18.2694 -4.56285 
24.3786 105.339 -27.6938 68.9891 52.2899 17.0166 -70.1915 0 88.8779 107.938 68.7295 -29.0591 -0.590827 17.3742 8.06999 -144.141 19.7044 167.807 -143.696 56.7096 167.861 1.87856 -6.021 -34.0513 -100.871 45.7144 -93.4096 -8.10467 42.5544 0.545314 4.69913 0.0045464 1.60945 0.318734 -1.0096 46.0152 -69.3713 -36.9744 95.4721 -1.3508 -7.77772 16.511 15.2526 -0.341559 -3.02491 -58.3559 -5.54035 96.5126 2.06491 25.2944 -6.52706 8.61952 3.55921 -1.15966 -10.2187 -24.4973 -0.276778 -40.7777 -1.71493 76.2093 4.22959 57.5927 4.78661 -5.42117 -2.6795 0.892098 -3.2071 -16.8225 -5.64962 
22.9632 105.451 -26.291 69.1679 52.2154 17.1066 -70.1915 0 88.8779 106.155 69.4144 -26.8014 -0.255888 17.6304 8.10392 -143.492 19.8573 168.749 -144.075 57.0431 169.28 2.00024 -5.61619 -34.8623 -101.802 44.646 -90.2825 -8.61069 44.2893 1.29821 5.57934 -0.106762 -0.530036 0.293787 -0.933316 45.5909 -68.2984 -37.1045 95.735 -1.37125 -6.40569 16.889 14.8461 -0.492697 -4.3125 -57.439 -5.55001 96.3302 2.10479 24.9128 -6.3447 8.4075 4.0643 -1.12806 -9.40467 -22.6489 -0.215055 -43.2748 -0.863731 76.9355 5.54936 63.1118 3.3468 -5.51073 -3.46433 0.919307 -2.71784 -14.7833 -3.80246 
21.6414 105.444 -24.8977 69.2642 51.8656 16.7134 -70.1915 0 88.8779 102.47 70.5757 -22.9289 0.496615 18.3355 7.7565 -142.352 19.7504 168.418 -141.629 56.6255 168.779 2.07597 -5.42066 -35.6013 -101.13 43.1496 -88.3586 -9.4339 46.0271 1.64151 7.28909 -0.438714 -5.00145 0.30097 -0.955811 45.667 -68.0839 -36.9912 95.5583 -1.58259 -4.80316 17.1362 14.9577 -0.661026 -5.61815 -56.4295 -5.79761 96.2648 1.77179 24.5626 -5.62963 8.32013 4.42478 -1.1145 -8.5316 -20.6073 -0.27711 -46.6089 -0.2463 77.5041 6.26113 66.1952 0.807696 -5.04415 -2.61439 0.853103 -2.45451 -13.4259 -1.39585 
20.2519 105.427 -23.4581 68.6435 51.5033 16.8308 -70.1915 0 88.8779 98.3616 71.5546 -18.089 0.777792 19.1806 6.87498 -142.524 20.0687 168.195 -142.191 56.9933 168.227 2.07566 -5.40689 -35.5187 -100.729 42.4308 -85.9639 -9.77825 46.417 1.64252 6.60478 -0.35224 -4.24271 0.300999 -0.955784 45.6841 -67.9684 -37.1474 95.3327 -1.62018 -3.78449 17.388 14.997 -0.939869 -7.80864 -54.9318 -6.34038 95.8034 1.61437 24.1585 -4.7045 8.1162 4.84622 -1.08151 -7.62838 -18.516 -0.188699 -50.0625 -0.154683 77.3298 6.29749 66.9171 -0.517383 -4.62037 -1.20851 0.767403 -2.85453 -15.4074 -0.604233 
18.7297 105.375 -22.0943 68.1976 50.7377 16.3738 -70.1915 0 88.8779 93.1327 72.7566 -11.9606 1.21451 20.4168 5.8231 -142.091 20.4487 168.467 -142.674 57.4995 168.476 2.10264 -5.33385 -35.7492 -100.24 41.7326 -84.3406 -11.0362 47.7902 2.93659 7.44572 -0.39664 -4.24863 0.295073 -0.938999 45.3544 -69.1349 -37.487 94.6643 -1.66797 -4.26515 17.1686 15.4014 -1.0073 -8.12101 -53.7719 -7.2734 95.2547 1.38587 23.0159 -3.12366 7.88915 5.67555 -1.04172 -6.81251 -16.5959 -0.151527 -53.9115 -0.458282 77.6637 5.97687 65.9756 -0.0741821 -4.91159 -1.34027 0.803605 -3.02651 -16.2683 -0.920993 
